<!-- Generated by IcoMoon.io -->
<svg version="1.1" xmlns="http://www.w3.org/2000/svg" width="640" height="640" viewBox="0 0 640 640">
<title></title>
<g id="icomoon-ignore">
</g>
<path d="M303.872 48.32c-0.064 0.064-2.944 0.384-6.272 0.576-3.328 0.256-6.656 0.576-7.36 0.704s-2.688 0.448-4.48 0.64c-4.224 0.448-6.848 0.896-16.64 2.496-0.704 0.064-1.984 0.384-2.88 0.576s-4.352 1.024-7.68 1.728c-11.84 2.624-31.936 8.896-40 12.48-1.024 0.512-3.776 1.664-6.080 2.56-11.392 4.672-29.824 14.656-42.304 22.976-10.304 6.848-12.096 8.128-20.864 15.296-39.424 31.808-68.672 73.088-85.76 120.768-4.8 13.504-9.856 32.96-11.712 45.312-1.6 10.176-1.856 12.224-2.24 16.448-0.256 2.432-0.576 5.312-0.768 6.4-0.576 3.648-0.704 35.904-0.192 42.24 0.64 7.36 1.92 19.264 2.304 21.12 0.192 0.704 0.896 4.608 1.6 8.64 6.080 34.496 20.096 69.504 40.192 100.16 2.304 3.52 4.416 6.656 4.736 7.040 0.256 0.32 2.496 3.392 4.992 6.72 15.232 20.352 33.152 38.272 53.376 53.568 16.128 12.096 25.984 18.24 43.904 27.2 24.064 11.968 55.296 21.76 80.256 25.088 1.408 0.192 4.608 0.64 7.040 0.96 12.224 1.664 42.368 2.304 54.72 1.152 29.888-2.752 55.104-8.768 80.96-19.264 13.248-5.44 30.144-14.016 40.64-20.736 10.432-6.656 22.144-14.976 27.584-19.584 1.28-1.088 3.712-3.136 5.44-4.544s5.12-4.416 7.616-6.72c42.88-39.936 71.040-89.792 82.432-145.92 2.048-9.856 3.52-19.264 4.032-25.6 0.192-2.624 0.512-5.504 0.704-6.4 0.576-2.88 0.704-35.968 0.128-42.24-0.704-8.704-1.856-18.368-2.496-22.080-0.32-1.792-0.896-5.056-1.28-7.36-5.248-29.696-17.792-63.296-33.344-89.088-3.776-6.208-10.496-16.704-11.648-18.112-0.256-0.384-2.624-3.52-5.312-7.040-34.816-46.592-85.184-81.408-141.056-97.6-16.128-4.672-33.088-8-47.36-9.344-2.304-0.192-4.992-0.512-6.080-0.704-2.112-0.32-38.464-0.832-38.848-0.512zM340.8 113.088c40.512 4.16 77.376 19.264 109.504 44.8 8.96 7.168 24.64 22.848 31.872 31.872 16 20.096 27.776 41.984 35.84 66.56 3.904 12.096 7.36 28.224 9.024 42.88 0.832 7.488 0.832 31.616 0 40.32-3.584 36.608-16.64 71.808-36.992 100.16-9.664 13.44-24.512 29.76-35.264 38.784-33.6 28.096-74.432 45.184-116.864 48.832-6.656 0.576-34.112 0.448-38.4-0.192-1.216-0.192-4.672-0.64-7.68-1.088-24.896-3.2-52.16-12.352-73.792-24.704-11.072-6.272-25.024-16.064-34.24-24-2.944-2.496-18.944-18.624-21.504-21.568-28.032-32.832-44.928-72.64-49.472-116.544-0.64-6.208-0.64-29.312 0-37.12 6.464-80.128 60.352-150.144 136.768-177.792 10.88-3.968 29.76-8.768 39.040-9.984 1.6-0.192 4.096-0.576 5.568-0.768 11.392-1.6 33.664-1.792 46.592-0.448z"></path>
<path d="M170.88 272.576c-4.352 1.344-7.168 3.648-9.344 7.744-1.152 2.112-1.216 4.352-1.216 39.68 0 37.12 0 37.44 1.408 40 1.536 2.944 3.456 4.8 6.592 6.464 2.176 1.152 7.168 1.216 149.76 1.408 110.208 0.128 148.416 0 150.976-0.576 2.752-0.576 4.032-1.344 6.464-3.776 4.608-4.544 4.608-4.352 4.352-45.44-0.192-35.264-0.192-35.52-1.6-38.208-1.856-3.392-5.376-6.272-8.896-7.168-3.2-0.832-295.808-0.896-298.496-0.128z"></path>
</svg>
